<?xml version="1.0" encoding="us-ascii" standalone="no"?><svg xmlns="http://www.w3.org/2000/svg" xmlns:xlink="http://www.w3.org/1999/xlink" contentStyleType="text/css" height="297px" preserveAspectRatio="none" style="width:574px;height:297px;background:#FFFFFF;" version="1.1" viewBox="0 0 574 297" width="574px" zoomAndPan="magnify"><defs/><g><text fill="#000000" font-family="sans-serif" font-size="14" font-weight="bold" lengthAdjust="spacing" textLength="200" x="180" y="22.9951">Applications Architecture</text><!--cluster Daqster App--><g id="cluster_Daqster App"><rect fill="none" height="99" rx="2.5" ry="2.5" style="stroke:#000000;stroke-width:1.5;" width="353" x="40" y="44.2969"/><text fill="#000000" font-family="sans-serif" font-size="14" font-weight="bold" lengthAdjust="spacing" textLength="98" x="167.5" y="59.292">Daqster App</text></g><!--cluster Framework--><g id="cluster_Framework"><rect fill="none" height="99" rx="2.5" ry="2.5" style="stroke:#000000;stroke-width:1.5;" width="561" x="7" y="192.2969"/><text fill="#000000" font-family="sans-serif" font-size="14" font-weight="bold" lengthAdjust="spacing" textLength="89" x="243" y="207.292">Framework</text></g><!--class ApplicationsManager--><g id="elem_ApplicationsManager"><rect codeLine="7" fill="#F1F1F1" height="48" id="ApplicationsManager" rx="2.5" ry="2.5" style="stroke:#181818;stroke-width:0.5;" width="175" x="201.5" y="79.2969"/><ellipse cx="216.5" cy="95.2969" fill="#ADD1B2" rx="11" ry="11" style="stroke:#181818;stroke-width:1.0;"/><path d="M219.4688,100.9375 Q218.8906,101.2344 218.25,101.375 Q217.6094,101.5313 216.9063,101.5313 Q214.4063,101.5313 213.0781,99.8906 Q211.7656,98.2344 211.7656,95.1094 Q211.7656,91.9844 213.0781,90.3281 Q214.4063,88.6719 216.9063,88.6719 Q217.6094,88.6719 218.25,88.8281 Q218.9063,88.9844 219.4688,89.2813 L219.4688,92 Q218.8438,91.4219 218.25,91.1563 Q217.6563,90.875 217.0313,90.875 Q215.6875,90.875 215,91.9531 Q214.3125,93.0156 214.3125,95.1094 Q214.3125,97.2031 215,98.2813 Q215.6875,99.3438 217.0313,99.3438 Q217.6563,99.3438 218.25,99.0781 Q218.8438,98.7969 219.4688,98.2188 L219.4688,100.9375 Z " fill="#000000"/><text fill="#000000" font-family="sans-serif" font-size="14" lengthAdjust="spacing" textLength="143" x="230.5" y="100.1436">ApplicationsManager</text><line style="stroke:#181818;stroke-width:0.5;" x1="202.5" x2="375.5" y1="111.2969" y2="111.2969"/><line style="stroke:#181818;stroke-width:0.5;" x1="202.5" x2="375.5" y1="119.2969" y2="119.2969"/></g><!--class AppToolbar--><g id="elem_AppToolbar"><rect codeLine="8" fill="#F1F1F1" height="48" id="AppToolbar" rx="2.5" ry="2.5" style="stroke:#181818;stroke-width:0.5;" width="111" x="55.5" y="79.2969"/><ellipse cx="70.5" cy="95.2969" fill="#ADD1B2" rx="11" ry="11" style="stroke:#181818;stroke-width:1.0;"/><path d="M73.4688,100.9375 Q72.8906,101.2344 72.25,101.375 Q71.6094,101.5313 70.9063,101.5313 Q68.4063,101.5313 67.0781,99.8906 Q65.7656,98.2344 65.7656,95.1094 Q65.7656,91.9844 67.0781,90.3281 Q68.4063,88.6719 70.9063,88.6719 Q71.6094,88.6719 72.25,88.8281 Q72.9063,88.9844 73.4688,89.2813 L73.4688,92 Q72.8438,91.4219 72.25,91.1563 Q71.6563,90.875 71.0313,90.875 Q69.6875,90.875 69,91.9531 Q68.3125,93.0156 68.3125,95.1094 Q68.3125,97.2031 69,98.2813 Q69.6875,99.3438 71.0313,99.3438 Q71.6563,99.3438 72.25,99.0781 Q72.8438,98.7969 73.4688,98.2188 L73.4688,100.9375 Z " fill="#000000"/><text fill="#000000" font-family="sans-serif" font-size="14" lengthAdjust="spacing" textLength="79" x="84.5" y="100.1436">AppToolbar</text><line style="stroke:#181818;stroke-width:0.5;" x1="56.5" x2="165.5" y1="111.2969" y2="111.2969"/><line style="stroke:#181818;stroke-width:0.5;" x1="56.5" x2="165.5" y1="119.2969" y2="119.2969"/></g><!--class QProcessManager--><g id="elem_QProcessManager"><rect codeLine="12" fill="#F1F1F1" height="48" id="QProcessManager" rx="2.5" ry="2.5" style="stroke:#181818;stroke-width:0.5;" width="159" x="22.5" y="227.2969"/><ellipse cx="37.5" cy="243.2969" fill="#ADD1B2" rx="11" ry="11" style="stroke:#181818;stroke-width:1.0;"/><path d="M40.4688,248.9375 Q39.8906,249.2344 39.25,249.375 Q38.6094,249.5313 37.9063,249.5313 Q35.4063,249.5313 34.0781,247.8906 Q32.7656,246.2344 32.7656,243.1094 Q32.7656,239.9844 34.0781,238.3281 Q35.4063,236.6719 37.9063,236.6719 Q38.6094,236.6719 39.25,236.8281 Q39.9063,236.9844 40.4688,237.2813 L40.4688,240 Q39.8438,239.4219 39.25,239.1563 Q38.6563,238.875 38.0313,238.875 Q36.6875,238.875 36,239.9531 Q35.3125,241.0156 35.3125,243.1094 Q35.3125,245.2031 36,246.2813 Q36.6875,247.3438 38.0313,247.3438 Q38.6563,247.3438 39.25,247.0781 Q39.8438,246.7969 40.4688,246.2188 L40.4688,248.9375 Z " fill="#000000"/><text fill="#000000" font-family="sans-serif" font-size="14" lengthAdjust="spacing" textLength="127" x="51.5" y="248.1436">QProcessManager</text><line style="stroke:#181818;stroke-width:0.5;" x1="23.5" x2="180.5" y1="259.2969" y2="259.2969"/><line style="stroke:#181818;stroke-width:0.5;" x1="23.5" x2="180.5" y1="267.2969" y2="267.2969"/></g><!--class QPluginManager--><g id="elem_QPluginManager"><rect codeLine="13" fill="#F1F1F1" height="48" id="QPluginManager" rx="2.5" ry="2.5" style="stroke:#181818;stroke-width:0.5;" width="145" x="216.5" y="227.2969"/><ellipse cx="231.5" cy="243.2969" fill="#ADD1B2" rx="11" ry="11" style="stroke:#181818;stroke-width:1.0;"/><path d="M234.4688,248.9375 Q233.8906,249.2344 233.25,249.375 Q232.6094,249.5313 231.9063,249.5313 Q229.4063,249.5313 228.0781,247.8906 Q226.7656,246.2344 226.7656,243.1094 Q226.7656,239.9844 228.0781,238.3281 Q229.4063,236.6719 231.9063,236.6719 Q232.6094,236.6719 233.25,236.8281 Q233.9063,236.9844 234.4688,237.2813 L234.4688,240 Q233.8438,239.4219 233.25,239.1563 Q232.6563,238.875 232.0313,238.875 Q230.6875,238.875 230,239.9531 Q229.3125,241.0156 229.3125,243.1094 Q229.3125,245.2031 230,246.2813 Q230.6875,247.3438 232.0313,247.3438 Q232.6563,247.3438 233.25,247.0781 Q233.8438,246.7969 234.4688,246.2188 L234.4688,248.9375 Z " fill="#000000"/><text fill="#000000" font-family="sans-serif" font-size="14" lengthAdjust="spacing" textLength="113" x="245.5" y="248.1436">QPluginManager</text><line style="stroke:#181818;stroke-width:0.5;" x1="217.5" x2="360.5" y1="259.2969" y2="259.2969"/><line style="stroke:#181818;stroke-width:0.5;" x1="217.5" x2="360.5" y1="267.2969" y2="267.2969"/></g><!--class ShutdownHandler--><g id="elem_ShutdownHandler"><rect codeLine="14" fill="#F1F1F1" height="48" id="ShutdownHandler" rx="2.5" ry="2.5" style="stroke:#181818;stroke-width:0.5;" width="155" x="396.5" y="227.2969"/><ellipse cx="411.5" cy="243.2969" fill="#ADD1B2" rx="11" ry="11" style="stroke:#181818;stroke-width:1.0;"/><path d="M414.4688,248.9375 Q413.8906,249.2344 413.25,249.375 Q412.6094,249.5313 411.9063,249.5313 Q409.4063,249.5313 408.0781,247.8906 Q406.7656,246.2344 406.7656,243.1094 Q406.7656,239.9844 408.0781,238.3281 Q409.4063,236.6719 411.9063,236.6719 Q412.6094,236.6719 413.25,236.8281 Q413.9063,236.9844 414.4688,237.2813 L414.4688,240 Q413.8438,239.4219 413.25,239.1563 Q412.6563,238.875 412.0313,238.875 Q410.6875,238.875 410,239.9531 Q409.3125,241.0156 409.3125,243.1094 Q409.3125,245.2031 410,246.2813 Q410.6875,247.3438 412.0313,247.3438 Q412.6563,247.3438 413.25,247.0781 Q413.8438,246.7969 414.4688,246.2188 L414.4688,248.9375 Z " fill="#000000"/><text fill="#000000" font-family="sans-serif" font-size="14" lengthAdjust="spacing" textLength="123" x="425.5" y="248.1436">ShutdownHandler</text><line style="stroke:#181818;stroke-width:0.5;" x1="397.5" x2="550.5" y1="259.2969" y2="259.2969"/><line style="stroke:#181818;stroke-width:0.5;" x1="397.5" x2="550.5" y1="267.2969" y2="267.2969"/></g><!--reverse link ApplicationsManager to QProcessManager--><g id="link_ApplicationsManager_QProcessManager"><path codeLine="17" d="M243.37,139.9269 C208.52,167.1269 161.53,203.8169 131.49,227.2669 " fill="none" id="ApplicationsManager-backto-QProcessManager" style="stroke:#181818;stroke-width:1.0;"/><polygon fill="none" points="239.3,134.2169,259.37,127.4269,247.91,145.2569,239.3,134.2169" style="stroke:#181818;stroke-width:1.0;"/></g><!--link ApplicationsManager to QPluginManager--><g id="link_ApplicationsManager_QPluginManager"><path codeLine="18" d="M289,127.4269 C289,153.0569 289,194.3969 289,221.9569 " fill="none" id="ApplicationsManager-to-QPluginManager" style="stroke:#181818;stroke-width:1.0;"/><polygon fill="#181818" points="289,227.2669,293,218.2669,289,222.2669,285,218.2669,289,227.2669" style="stroke:#181818;stroke-width:1.0;"/><text fill="#000000" font-family="sans-serif" font-size="13" lengthAdjust="spacing" textLength="83" x="290" y="172.3638">loads plugins</text></g><!--link ApplicationsManager to ShutdownHandler--><g id="link_ApplicationsManager_ShutdownHandler"><path codeLine="19" d="M333.03,127.3769 C349.01,136.5069 366.85,147.6069 382,159.2969 C407.02,178.5869 432.31,204.1469 450.03,223.2669 " fill="none" id="ApplicationsManager-to-ShutdownHandler" style="stroke:#181818;stroke-width:1.0;stroke-dasharray:7.0,7.0;"/><polygon fill="#181818" points="453.47,226.9969,450.3273,217.6629,450.0875,223.3147,444.4357,223.0749,453.47,226.9969" style="stroke:#181818;stroke-width:1.0;"/><text fill="#000000" font-family="sans-serif" font-size="13" lengthAdjust="spacing" textLength="116" x="402" y="172.3638">graceful shutdown</text></g><!--SRC=[RP11QiD034NtSmgHlNE0K0o14Be9EAGNKCQAFLYTcKfZJ4XwzqwIKbpRM_t_dxwadVCH1JyXeksmeLEwCe6GJKR_D6sn3eFp3LoGbOn9BcNNDaPs5fCBNc4hjdKfvth9XbyQh7RufOdauLt1pG1OHjL_qGFwR9MnzX42dr7CzuYqpqre2DADESTAWYMTCOuLzutpq_6fxLE-nB-ZhvcU_8Kcy7OlYXbwoLWKvMGLR803rWhnETN5s7fTJglaN2DewT9pVlTBCZy0]--></g></svg>