<?xml version="1.0" encoding="us-ascii" standalone="no"?><svg xmlns="http://www.w3.org/2000/svg" xmlns:xlink="http://www.w3.org/1999/xlink" contentStyleType="text/css" height="346px" preserveAspectRatio="none" style="width:580px;height:346px;background:#FFFFFF;" version="1.1" viewBox="0 0 580 346" width="580px" zoomAndPan="magnify"><defs/><g><text fill="#000000" font-family="sans-serif" font-size="14" font-weight="bold" lengthAdjust="spacing" textLength="260" x="153" y="22.9951">Daqster Framework Architecture</text><!--cluster Framework--><g id="cluster_Framework"><path d="M8.5,43.2969 L98.5,43.2969 A3.75,3.75 0 0 1 101,45.7969 L108,65.5938 L570.5,65.5938 A2.5,2.5 0 0 1 573,68.0938 L573,172.7969 A2.5,2.5 0 0 1 570.5,175.2969 L8.5,175.2969 A2.5,2.5 0 0 1 6,172.7969 L6,45.7969 A2.5,2.5 0 0 1 8.5,43.2969 " fill="none" style="stroke:#000000;stroke-width:1.5;"/><line style="stroke:#000000;stroke-width:1.5;" x1="6" x2="108" y1="65.5938" y2="65.5938"/><text fill="#000000" font-family="sans-serif" font-size="14" font-weight="bold" lengthAdjust="spacing" textLength="89" x="10" y="58.292">Framework</text></g><!--cluster Application--><g id="cluster_Application"><path d="M194.5,224.2969 L282.5,224.2969 A3.75,3.75 0 0 1 285,226.7969 L292,246.5938 L397.5,246.5938 A2.5,2.5 0 0 1 400,249.0938 L400,336.7969 A2.5,2.5 0 0 1 397.5,339.2969 L194.5,339.2969 A2.5,2.5 0 0 1 192,336.7969 L192,226.7969 A2.5,2.5 0 0 1 194.5,224.2969 " fill="none" style="stroke:#000000;stroke-width:1.5;"/><line style="stroke:#000000;stroke-width:1.5;" x1="192" x2="292" y1="246.5938" y2="246.5938"/><text fill="#000000" font-family="sans-serif" font-size="14" font-weight="bold" lengthAdjust="spacing" textLength="87" x="196" y="239.292">Application</text></g><!--class QProcessManager--><g id="elem_QProcessManager"><rect codeLine="4" fill="#F1F1F1" height="80.5938" id="QProcessManager" rx="2.5" ry="2.5" style="stroke:#181818;stroke-width:0.5;" width="159" x="21.5" y="78.2969"/><ellipse cx="36.5" cy="94.2969" fill="#ADD1B2" rx="11" ry="11" style="stroke:#181818;stroke-width:1.0;"/><path d="M39.4688,99.9375 Q38.8906,100.2344 38.25,100.375 Q37.6094,100.5313 36.9063,100.5313 Q34.4063,100.5313 33.0781,98.8906 Q31.7656,97.2344 31.7656,94.1094 Q31.7656,90.9844 33.0781,89.3281 Q34.4063,87.6719 36.9063,87.6719 Q37.6094,87.6719 38.25,87.8281 Q38.9063,87.9844 39.4688,88.2813 L39.4688,91 Q38.8438,90.4219 38.25,90.1563 Q37.6563,89.875 37.0313,89.875 Q35.6875,89.875 35,90.9531 Q34.3125,92.0156 34.3125,94.1094 Q34.3125,96.2031 35,97.2813 Q35.6875,98.3438 37.0313,98.3438 Q37.6563,98.3438 38.25,98.0781 Q38.8438,97.7969 39.4688,97.2188 L39.4688,99.9375 Z " fill="#000000"/><text fill="#000000" font-family="sans-serif" font-size="14" lengthAdjust="spacing" textLength="127" x="50.5" y="99.1436">QProcessManager</text><line style="stroke:#181818;stroke-width:0.5;" x1="22.5" x2="179.5" y1="110.2969" y2="110.2969"/><line style="stroke:#181818;stroke-width:0.5;" x1="22.5" x2="179.5" y1="118.2969" y2="118.2969"/><ellipse cx="32.5" cy="131.9453" fill="#84BE84" rx="3" ry="3" style="stroke:#038048;stroke-width:1.0;"/><text fill="#000000" font-family="sans-serif" font-size="14" lengthAdjust="spacing" textLength="97" x="41.5" y="135.292">startProcess()</text><ellipse cx="32.5" cy="148.2422" fill="#84BE84" rx="3" ry="3" style="stroke:#038048;stroke-width:1.0;"/><text fill="#000000" font-family="sans-serif" font-size="14" lengthAdjust="spacing" textLength="97" x="41.5" y="151.5889">stopProcess()</text></g><!--class ShutdownHandler--><g id="elem_ShutdownHandler"><rect codeLine="8" fill="#F1F1F1" height="64.2969" id="ShutdownHandler" rx="2.5" ry="2.5" style="stroke:#181818;stroke-width:0.5;" width="160" x="216" y="86.7969"/><ellipse cx="233.25" cy="102.7969" fill="#ADD1B2" rx="11" ry="11" style="stroke:#181818;stroke-width:1.0;"/><path d="M236.2188,108.4375 Q235.6406,108.7344 235,108.875 Q234.3594,109.0313 233.6563,109.0313 Q231.1563,109.0313 229.8281,107.3906 Q228.5156,105.7344 228.5156,102.6094 Q228.5156,99.4844 229.8281,97.8281 Q231.1563,96.1719 233.6563,96.1719 Q234.3594,96.1719 235,96.3281 Q235.6563,96.4844 236.2188,96.7813 L236.2188,99.5 Q235.5938,98.9219 235,98.6563 Q234.4063,98.375 233.7813,98.375 Q232.4375,98.375 231.75,99.4531 Q231.0625,100.5156 231.0625,102.6094 Q231.0625,104.7031 231.75,105.7813 Q232.4375,106.8438 233.7813,106.8438 Q234.4063,106.8438 235,106.5781 Q235.5938,106.2969 236.2188,105.7188 L236.2188,108.4375 Z " fill="#000000"/><text fill="#000000" font-family="sans-serif" font-size="14" lengthAdjust="spacing" textLength="123" x="247.75" y="107.6436">ShutdownHandler</text><line style="stroke:#181818;stroke-width:0.5;" x1="217" x2="375" y1="118.7969" y2="118.7969"/><line style="stroke:#181818;stroke-width:0.5;" x1="217" x2="375" y1="126.7969" y2="126.7969"/><ellipse cx="227" cy="140.4453" fill="#84BE84" rx="3" ry="3" style="stroke:#038048;stroke-width:1.0;"/><text fill="#000000" font-family="sans-serif" font-size="14" lengthAdjust="spacing" textLength="134" x="236" y="143.792">requestShutdown()</text></g><!--class QPluginManager--><g id="elem_QPluginManager"><rect codeLine="11" fill="#F1F1F1" height="64.2969" id="QPluginManager" rx="2.5" ry="2.5" style="stroke:#181818;stroke-width:0.5;" width="145" x="411.5" y="86.7969"/><ellipse cx="426.5" cy="102.7969" fill="#ADD1B2" rx="11" ry="11" style="stroke:#181818;stroke-width:1.0;"/><path d="M429.4688,108.4375 Q428.8906,108.7344 428.25,108.875 Q427.6094,109.0313 426.9063,109.0313 Q424.4063,109.0313 423.0781,107.3906 Q421.7656,105.7344 421.7656,102.6094 Q421.7656,99.4844 423.0781,97.8281 Q424.4063,96.1719 426.9063,96.1719 Q427.6094,96.1719 428.25,96.3281 Q428.9063,96.4844 429.4688,96.7813 L429.4688,99.5 Q428.8438,98.9219 428.25,98.6563 Q427.6563,98.375 427.0313,98.375 Q425.6875,98.375 425,99.4531 Q424.3125,100.5156 424.3125,102.6094 Q424.3125,104.7031 425,105.7813 Q425.6875,106.8438 427.0313,106.8438 Q427.6563,106.8438 428.25,106.5781 Q428.8438,106.2969 429.4688,105.7188 L429.4688,108.4375 Z " fill="#000000"/><text fill="#000000" font-family="sans-serif" font-size="14" lengthAdjust="spacing" textLength="113" x="440.5" y="107.6436">QPluginManager</text><line style="stroke:#181818;stroke-width:0.5;" x1="412.5" x2="555.5" y1="118.7969" y2="118.7969"/><line style="stroke:#181818;stroke-width:0.5;" x1="412.5" x2="555.5" y1="126.7969" y2="126.7969"/><ellipse cx="422.5" cy="140.4453" fill="#84BE84" rx="3" ry="3" style="stroke:#038048;stroke-width:1.0;"/><text fill="#000000" font-family="sans-serif" font-size="14" lengthAdjust="spacing" textLength="89" x="431.5" y="143.792">loadPlugins()</text></g><!--class ApplicationsManager--><g id="elem_ApplicationsManager"><rect codeLine="16" fill="#F1F1F1" height="64.2969" id="ApplicationsManager" rx="2.5" ry="2.5" style="stroke:#181818;stroke-width:0.5;" width="175" x="208.5" y="259.2969"/><ellipse cx="223.5" cy="275.2969" fill="#ADD1B2" rx="11" ry="11" style="stroke:#181818;stroke-width:1.0;"/><path d="M226.4688,280.9375 Q225.8906,281.2344 225.25,281.375 Q224.6094,281.5313 223.9063,281.5313 Q221.4063,281.5313 220.0781,279.8906 Q218.7656,278.2344 218.7656,275.1094 Q218.7656,271.9844 220.0781,270.3281 Q221.4063,268.6719 223.9063,268.6719 Q224.6094,268.6719 225.25,268.8281 Q225.9063,268.9844 226.4688,269.2813 L226.4688,272 Q225.8438,271.4219 225.25,271.1563 Q224.6563,270.875 224.0313,270.875 Q222.6875,270.875 222,271.9531 Q221.3125,273.0156 221.3125,275.1094 Q221.3125,277.2031 222,278.2813 Q222.6875,279.3438 224.0313,279.3438 Q224.6563,279.3438 225.25,279.0781 Q225.8438,278.7969 226.4688,278.2188 L226.4688,280.9375 Z " fill="#000000"/><text fill="#000000" font-family="sans-serif" font-size="14" lengthAdjust="spacing" textLength="143" x="237.5" y="280.1436">ApplicationsManager</text><line style="stroke:#181818;stroke-width:0.5;" x1="209.5" x2="382.5" y1="291.2969" y2="291.2969"/><line style="stroke:#181818;stroke-width:0.5;" x1="209.5" x2="382.5" y1="299.2969" y2="299.2969"/><ellipse cx="219.5" cy="312.9453" fill="#84BE84" rx="3" ry="3" style="stroke:#038048;stroke-width:1.0;"/><text fill="#000000" font-family="sans-serif" font-size="14" lengthAdjust="spacing" textLength="64" x="228.5" y="316.292">initialize()</text></g><!--reverse link QProcessManager to ApplicationsManager--><g id="link_QProcessManager_ApplicationsManager"><path codeLine="20" d="M161.56,172.7469 C194.01,201.1169 232.86,235.0869 260.43,259.1969 " fill="none" id="QProcessManager-backto-ApplicationsManager" style="stroke:#181818;stroke-width:1.0;"/><polygon fill="none" points="156.68,177.7769,146.23,159.3369,165.89,167.2369,156.68,177.7769" style="stroke:#181818;stroke-width:1.0;"/></g><!--link ShutdownHandler to ApplicationsManager--><g id="link_ShutdownHandler_ApplicationsManager"><path codeLine="21" d="M296,151.0669 C296,180.1469 296,223.4669 296,254.0469 " fill="none" id="ShutdownHandler-to-ApplicationsManager" style="stroke:#181818;stroke-width:1.0;stroke-dasharray:7.0,7.0;"/><polygon fill="#181818" points="296,259.2269,300,250.2269,296,254.2269,292,250.2269,296,259.2269" style="stroke:#181818;stroke-width:1.0;"/><text fill="#000000" font-family="sans-serif" font-size="13" lengthAdjust="spacing" textLength="121" x="297" y="204.3638">requests shutdown</text></g><!--link QPluginManager to ApplicationsManager--><g id="link_QPluginManager_ApplicationsManager"><path codeLine="22" d="M468.46,150.8769 C458.34,169.0469 443.91,191.6069 427,208.2969 C408.11,226.9369 384.27,243.4169 362.11,256.6169 " fill="none" id="QPluginManager-to-ApplicationsManager" style="stroke:#181818;stroke-width:1.0;"/><polygon fill="#181818" points="357.71,259.2169,367.4945,258.0929,362.0175,256.678,363.4324,251.201,357.71,259.2169" style="stroke:#181818;stroke-width:1.0;"/><text fill="#000000" font-family="sans-serif" font-size="13" lengthAdjust="spacing" textLength="109" x="441" y="204.3638">manages plugins</text></g><!--SRC=[TO_1YW9134Jl_HN1aukC7o2B8CYo5q7PBmWzGODjTq-IGLZrtrTqPXmQznQgKbKyOmi4QspKIE1By4Jd94TOYJ-maRTMoBcC_eXxWidmC86B0_01LM6tbUH9TOFn_YGF1s2cXcATDVtejPJ7qcqe-JcqLgTp_CPOXrU9KDEIMkyMeTqsj7kEnN18M3-DVkJs8bZb7DYZSOfZXf5SSd1aOmpyIqDRIVnvhQft5Qwaci-NRwSMq84gQ1Tn1LnL_HSzFIw5_6J-0m00]--></g></svg>