<svg xmlns="http://www.w3.org/2000/svg" xmlns:xlink="http://www.w3.org/1999/xlink" contentStyleType="text/css" data-diagram-type="CLASS" height="260px" preserveAspectRatio="none" style="width:578px;height:260px;background:#FFFFFF;" version="1.1" viewBox="0 0 578 260" width="578px" zoomAndPan="magnify"><defs/><g><!--cluster Framework--><g class="cluster" data-entity="Framework" data-source-line="1" data-uid="ent0002" id="cluster_Framework"><path d="M8.5,6 L98.2646,6 A3.75,3.75 0 0 1 100.7646,8.5 L107.7646,28.2969 L568.5,28.2969 A2.5,2.5 0 0 1 571,30.7969 L571,102.5 A2.5,2.5 0 0 1 568.5,105 L8.5,105 A2.5,2.5 0 0 1 6,102.5 L6,8.5 A2.5,2.5 0 0 1 8.5,6" fill="none" style="stroke:#000000;stroke-width:1.5;"/><line style="stroke:#000000;stroke-width:1.5;" x1="6" x2="107.7646" y1="28.2969" y2="28.2969"/><text fill="#000000" font-family="sans-serif" font-size="14" font-weight="bold" lengthAdjust="spacing" textLength="88.7646" x="10" y="20.9951">Framework</text></g><!--cluster Application--><g class="cluster" data-entity="Application" data-source-line="6" data-uid="ent0006" id="cluster_Application"><path d="M190.5,154 L280.7979,154 A3.75,3.75 0 0 1 283.2979,156.5 L290.2979,176.2969 L397.5,176.2969 A2.5,2.5 0 0 1 400,178.7969 L400,250.5 A2.5,2.5 0 0 1 397.5,253 L190.5,253 A2.5,2.5 0 0 1 188,250.5 L188,156.5 A2.5,2.5 0 0 1 190.5,154" fill="none" style="stroke:#000000;stroke-width:1.5;"/><line style="stroke:#000000;stroke-width:1.5;" x1="188" x2="290.2979" y1="176.2969" y2="176.2969"/><text fill="#000000" font-family="sans-serif" font-size="14" font-weight="bold" lengthAdjust="spacing" textLength="89.2979" x="192" y="168.9951">Application</text></g><!--class QProcessManager--><g class="entity" data-entity="QProcessManager" data-source-line="2" data-uid="ent0003" id="entity_QProcessManager"><rect fill="#F1F1F1" height="48" rx="2.5" ry="2.5" style="stroke:#181818;stroke-width:0.5;" width="158.0479" x="22" y="41"/><ellipse cx="37" cy="57" fill="#ADD1B2" rx="11" ry="11" style="stroke:#181818;stroke-width:1;"/><path d="M39.9688,62.6406 Q39.3906,62.9375 38.75,63.0781 Q38.1094,63.2344 37.4063,63.2344 Q34.9063,63.2344 33.5781,61.5938 Q32.2656,59.9375 32.2656,56.8125 Q32.2656,53.6875 33.5781,52.0313 Q34.9063,50.375 37.4063,50.375 Q38.1094,50.375 38.75,50.5313 Q39.4063,50.6875 39.9688,50.9844 L39.9688,53.7031 Q39.3438,53.125 38.75,52.8594 Q38.1563,52.5781 37.5313,52.5781 Q36.1875,52.5781 35.5,53.6563 Q34.8125,54.7188 34.8125,56.8125 Q34.8125,58.9063 35.5,59.9844 Q36.1875,61.0469 37.5313,61.0469 Q38.1563,61.0469 38.75,60.7813 Q39.3438,60.5 39.9688,59.9219 L39.9688,62.6406 Z " fill="#000000"/><text fill="#000000" font-family="sans-serif" font-size="14" lengthAdjust="spacing" textLength="126.0479" x="51" y="61.8467">QProcessManager</text><line style="stroke:#181818;stroke-width:0.5;" x1="23" x2="179.0479" y1="73" y2="73"/><line style="stroke:#181818;stroke-width:0.5;" x1="23" x2="179.0479" y1="81" y2="81"/></g><!--class ShutdownHandler--><g class="entity" data-entity="ShutdownHandler" data-source-line="3" data-uid="ent0004" id="entity_ShutdownHandler"><rect fill="#F1F1F1" height="48" rx="2.5" ry="2.5" style="stroke:#181818;stroke-width:0.5;" width="157.0225" x="215.5" y="41"/><ellipse cx="230.5" cy="57" fill="#ADD1B2" rx="11" ry="11" style="stroke:#181818;stroke-width:1;"/><path d="M233.4688,62.6406 Q232.8906,62.9375 232.25,63.0781 Q231.6094,63.2344 230.9063,63.2344 Q228.4063,63.2344 227.0781,61.5938 Q225.7656,59.9375 225.7656,56.8125 Q225.7656,53.6875 227.0781,52.0313 Q228.4063,50.375 230.9063,50.375 Q231.6094,50.375 232.25,50.5313 Q232.9063,50.6875 233.4688,50.9844 L233.4688,53.7031 Q232.8438,53.125 232.25,52.8594 Q231.6563,52.5781 231.0313,52.5781 Q229.6875,52.5781 229,53.6563 Q228.3125,54.7188 228.3125,56.8125 Q228.3125,58.9063 229,59.9844 Q229.6875,61.0469 231.0313,61.0469 Q231.6563,61.0469 232.25,60.7813 Q232.8438,60.5 233.4688,59.9219 L233.4688,62.6406 Z " fill="#000000"/><text fill="#000000" font-family="sans-serif" font-size="14" lengthAdjust="spacing" textLength="125.0225" x="244.5" y="61.8467">ShutdownHandler</text><line style="stroke:#181818;stroke-width:0.5;" x1="216.5" x2="371.5225" y1="73" y2="73"/><line style="stroke:#181818;stroke-width:0.5;" x1="216.5" x2="371.5225" y1="81" y2="81"/></g><!--class QPluginManager--><g class="entity" data-entity="QPluginManager" data-source-line="4" data-uid="ent0005" id="entity_QPluginManager"><rect fill="#F1F1F1" height="48" rx="2.5" ry="2.5" style="stroke:#181818;stroke-width:0.5;" width="147.2402" x="407.5" y="41"/><ellipse cx="422.5" cy="57" fill="#ADD1B2" rx="11" ry="11" style="stroke:#181818;stroke-width:1;"/><path d="M425.4688,62.6406 Q424.8906,62.9375 424.25,63.0781 Q423.6094,63.2344 422.9063,63.2344 Q420.4063,63.2344 419.0781,61.5938 Q417.7656,59.9375 417.7656,56.8125 Q417.7656,53.6875 419.0781,52.0313 Q420.4063,50.375 422.9063,50.375 Q423.6094,50.375 424.25,50.5313 Q424.9063,50.6875 425.4688,50.9844 L425.4688,53.7031 Q424.8438,53.125 424.25,52.8594 Q423.6563,52.5781 423.0313,52.5781 Q421.6875,52.5781 421,53.6563 Q420.3125,54.7188 420.3125,56.8125 Q420.3125,58.9063 421,59.9844 Q421.6875,61.0469 423.0313,61.0469 Q423.6563,61.0469 424.25,60.7813 Q424.8438,60.5 425.4688,59.9219 L425.4688,62.6406 Z " fill="#000000"/><text fill="#000000" font-family="sans-serif" font-size="14" lengthAdjust="spacing" textLength="115.2402" x="436.5" y="61.8467">QPluginManager</text><line style="stroke:#181818;stroke-width:0.5;" x1="408.5" x2="553.7402" y1="73" y2="73"/><line style="stroke:#181818;stroke-width:0.5;" x1="408.5" x2="553.7402" y1="81" y2="81"/></g><!--class ApplicationsManager--><g class="entity" data-entity="ApplicationsManager" data-source-line="7" data-uid="ent0007" id="entity_ApplicationsManager"><rect fill="#F1F1F1" height="48" rx="2.5" ry="2.5" style="stroke:#181818;stroke-width:0.5;" width="178.8838" x="204.5" y="189"/><ellipse cx="219.5" cy="205" fill="#ADD1B2" rx="11" ry="11" style="stroke:#181818;stroke-width:1;"/><path d="M222.4688,210.6406 Q221.8906,210.9375 221.25,211.0781 Q220.6094,211.2344 219.9063,211.2344 Q217.4063,211.2344 216.0781,209.5938 Q214.7656,207.9375 214.7656,204.8125 Q214.7656,201.6875 216.0781,200.0313 Q217.4063,198.375 219.9063,198.375 Q220.6094,198.375 221.25,198.5313 Q221.9063,198.6875 222.4688,198.9844 L222.4688,201.7031 Q221.8438,201.125 221.25,200.8594 Q220.6563,200.5781 220.0313,200.5781 Q218.6875,200.5781 218,201.6563 Q217.3125,202.7188 217.3125,204.8125 Q217.3125,206.9063 218,207.9844 Q218.6875,209.0469 220.0313,209.0469 Q220.6563,209.0469 221.25,208.7813 Q221.8438,208.5 222.4688,207.9219 L222.4688,210.6406 Z " fill="#000000"/><text fill="#000000" font-family="sans-serif" font-size="14" lengthAdjust="spacing" textLength="146.8838" x="233.5" y="209.8467">ApplicationsManager</text><line style="stroke:#181818;stroke-width:0.5;" x1="205.5" x2="382.3838" y1="221" y2="221"/><line style="stroke:#181818;stroke-width:0.5;" x1="205.5" x2="382.3838" y1="229" y2="229"/></g><!--reverse link QProcessManager to ApplicationsManager--><g class="link" data-entity-1="QProcessManager" data-entity-2="ApplicationsManager" data-source-line="9" data-uid="lnk8" id="link_QProcessManager_ApplicationsManager"><path codeLine="9" d="M145.9351,99.9896 C182.0751,127.3296 227.49,161.68 263.56,188.97" fill="none" id="QProcessManager-backto-ApplicationsManager" style="stroke:#181818;stroke-width:1;"/><polygon fill="none" points="131.58,89.13,142.3152,104.7747,149.555,95.2046,131.58,89.13" style="stroke:#181818;stroke-width:1;"/></g><!--link ShutdownHandler to ApplicationsManager--><g class="link" data-entity-1="ShutdownHandler" data-entity-2="ApplicationsManager" data-source-line="10" data-uid="lnk9" id="link_ShutdownHandler_ApplicationsManager"><path codeLine="10" d="M294,89.13 C294,116.47 294,155.68 294,182.97" fill="none" id="ShutdownHandler-to-ApplicationsManager" style="stroke:#181818;stroke-width:1;stroke-dasharray:7,7;"/><polygon fill="#181818" points="294,188.97,298,179.97,294,183.97,290,179.97,294,188.97" style="stroke:#181818;stroke-width:1;"/><text fill="#000000" font-family="sans-serif" font-size="13" lengthAdjust="spacing" textLength="124.0332" x="295" y="134.0669">requests shutdown</text></g><!--link QPluginManager to ApplicationsManager--><g class="link" data-entity-1="QPluginManager" data-entity-2="ApplicationsManager" data-source-line="11" data-uid="lnk10" id="link_QPluginManager_ApplicationsManager"><path codeLine="11" d="M467.65,89.12 C458.04,104.34 443.98,123.97 428,138 C404.33,158.77 379.2472,173.5284 353.3472,186.2284" fill="none" id="QPluginManager-to-ApplicationsManager" style="stroke:#181818;stroke-width:1;"/><polygon fill="#181818" points="347.96,188.87,357.8019,188.4991,352.4493,186.6687,354.2797,181.3161,347.96,188.87" style="stroke:#181818;stroke-width:1;"/><text fill="#000000" font-family="sans-serif" font-size="13" lengthAdjust="spacing" textLength="110.9697" x="444" y="134.0669">manages plugins</text></g><!--SRC=[TOv12i8m44NtFSMd-_G08e8RSIEqU88X3JKqJM8ceGlrxagn6alT3P_tvdzFigTEeJm46jJeGb_YLW3I43EQEZYfc4zaNr3uvETBYgqRxP5iQxAygKtgj9tnH-7dztllZPOKjRDvGHRprrhKOdiNOXLTx41LxTOuR13KDIcE37uhnUzM2F5F7QQBuIUUdm00]--></g></svg>