<?xml version="1.0" encoding="us-ascii" standalone="no"?><svg xmlns="http://www.w3.org/2000/svg" xmlns:xlink="http://www.w3.org/1999/xlink" contentStyleType="text/css" height="408px" preserveAspectRatio="none" style="width:872px;height:408px;background:#FFFFFF;" version="1.1" viewBox="0 0 872 408" width="872px" zoomAndPan="magnify"><defs/><g><text fill="#000000" font-family="sans-serif" font-size="14" font-weight="bold" lengthAdjust="spacing" textLength="194" x="332" y="22.9951">Framework Components</text><!--cluster Platform--><g id="cluster_Platform"><rect fill="none" height="210" rx="2.5" ry="2.5" style="stroke:#000000;stroke-width:1.5;" width="469" x="7" y="192.2969"/><text fill="#000000" font-family="sans-serif" font-size="14" font-weight="bold" lengthAdjust="spacing" textLength="66" x="208.5" y="207.292">Platform</text></g><!--cluster Process--><g id="cluster_Process"><rect fill="none" height="99" rx="2.5" ry="2.5" style="stroke:#000000;stroke-width:1.5;" width="190" x="138" y="44.2969"/><text fill="#000000" font-family="sans-serif" font-size="14" font-weight="bold" lengthAdjust="spacing" textLength="64" x="201" y="59.292">Process</text></g><!--cluster Plugins--><g id="cluster_Plugins"><rect fill="none" height="247" rx="2.5" ry="2.5" style="stroke:#000000;stroke-width:1.5;" width="366" x="500" y="44.2969"/><text fill="#000000" font-family="sans-serif" font-size="14" font-weight="bold" lengthAdjust="spacing" textLength="57" x="654.5" y="59.292">Plugins</text></g><!--class ShutdownHandler--><g id="elem_ShutdownHandler"><rect codeLine="7" fill="#F1F1F1" height="48" id="ShutdownHandler" rx="2.5" ry="2.5" style="stroke:#181818;stroke-width:0.5;" width="155" x="155.5" y="227.2969"/><ellipse cx="170.5" cy="243.2969" fill="#ADD1B2" rx="11" ry="11" style="stroke:#181818;stroke-width:1.0;"/><path d="M173.4688,248.9375 Q172.8906,249.2344 172.25,249.375 Q171.6094,249.5313 170.9063,249.5313 Q168.4063,249.5313 167.0781,247.8906 Q165.7656,246.2344 165.7656,243.1094 Q165.7656,239.9844 167.0781,238.3281 Q168.4063,236.6719 170.9063,236.6719 Q171.6094,236.6719 172.25,236.8281 Q172.9063,236.9844 173.4688,237.2813 L173.4688,240 Q172.8438,239.4219 172.25,239.1563 Q171.6563,238.875 171.0313,238.875 Q169.6875,238.875 169,239.9531 Q168.3125,241.0156 168.3125,243.1094 Q168.3125,245.2031 169,246.2813 Q169.6875,247.3438 171.0313,247.3438 Q171.6563,247.3438 172.25,247.0781 Q172.8438,246.7969 173.4688,246.2188 L173.4688,248.9375 Z " fill="#000000"/><text fill="#000000" font-family="sans-serif" font-size="14" lengthAdjust="spacing" textLength="123" x="184.5" y="248.1436">ShutdownHandler</text><line style="stroke:#181818;stroke-width:0.5;" x1="156.5" x2="309.5" y1="259.2969" y2="259.2969"/><line style="stroke:#181818;stroke-width:0.5;" x1="156.5" x2="309.5" y1="267.2969" y2="267.2969"/></g><!--class UnixShutdownHandler--><g id="elem_UnixShutdownHandler"><rect codeLine="8" fill="#F1F1F1" height="48" id="UnixShutdownHandler" rx="2.5" ry="2.5" style="stroke:#181818;stroke-width:0.5;" width="184" x="23" y="338.2969"/><ellipse cx="38" cy="354.2969" fill="#ADD1B2" rx="11" ry="11" style="stroke:#181818;stroke-width:1.0;"/><path d="M40.9688,359.9375 Q40.3906,360.2344 39.75,360.375 Q39.1094,360.5313 38.4063,360.5313 Q35.9063,360.5313 34.5781,358.8906 Q33.2656,357.2344 33.2656,354.1094 Q33.2656,350.9844 34.5781,349.3281 Q35.9063,347.6719 38.4063,347.6719 Q39.1094,347.6719 39.75,347.8281 Q40.4063,347.9844 40.9688,348.2813 L40.9688,351 Q40.3438,350.4219 39.75,350.1563 Q39.1563,349.875 38.5313,349.875 Q37.1875,349.875 36.5,350.9531 Q35.8125,352.0156 35.8125,354.1094 Q35.8125,356.2031 36.5,357.2813 Q37.1875,358.3438 38.5313,358.3438 Q39.1563,358.3438 39.75,358.0781 Q40.3438,357.7969 40.9688,357.2188 L40.9688,359.9375 Z " fill="#000000"/><text fill="#000000" font-family="sans-serif" font-size="14" lengthAdjust="spacing" textLength="152" x="52" y="359.1436">UnixShutdownHandler</text><line style="stroke:#181818;stroke-width:0.5;" x1="24" x2="206" y1="370.2969" y2="370.2969"/><line style="stroke:#181818;stroke-width:0.5;" x1="24" x2="206" y1="378.2969" y2="378.2969"/></g><!--class WindowsShutdownHandler--><g id="elem_WindowsShutdownHandler"><rect codeLine="9" fill="#F1F1F1" height="48" id="WindowsShutdownHandler" rx="2.5" ry="2.5" style="stroke:#181818;stroke-width:0.5;" width="217" x="242.5" y="338.2969"/><ellipse cx="257.5" cy="354.2969" fill="#ADD1B2" rx="11" ry="11" style="stroke:#181818;stroke-width:1.0;"/><path d="M260.4688,359.9375 Q259.8906,360.2344 259.25,360.375 Q258.6094,360.5313 257.9063,360.5313 Q255.4063,360.5313 254.0781,358.8906 Q252.7656,357.2344 252.7656,354.1094 Q252.7656,350.9844 254.0781,349.3281 Q255.4063,347.6719 257.9063,347.6719 Q258.6094,347.6719 259.25,347.8281 Q259.9063,347.9844 260.4688,348.2813 L260.4688,351 Q259.8438,350.4219 259.25,350.1563 Q258.6563,349.875 258.0313,349.875 Q256.6875,349.875 256,350.9531 Q255.3125,352.0156 255.3125,354.1094 Q255.3125,356.2031 256,357.2813 Q256.6875,358.3438 258.0313,358.3438 Q258.6563,358.3438 259.25,358.0781 Q259.8438,357.7969 260.4688,357.2188 L260.4688,359.9375 Z " fill="#000000"/><text fill="#000000" font-family="sans-serif" font-size="14" lengthAdjust="spacing" textLength="185" x="271.5" y="359.1436">WindowsShutdownHandler</text><line style="stroke:#181818;stroke-width:0.5;" x1="243.5" x2="458.5" y1="370.2969" y2="370.2969"/><line style="stroke:#181818;stroke-width:0.5;" x1="243.5" x2="458.5" y1="378.2969" y2="378.2969"/></g><!--class QProcessManager--><g id="elem_QProcessManager"><rect codeLine="13" fill="#F1F1F1" height="48" id="QProcessManager" rx="2.5" ry="2.5" style="stroke:#181818;stroke-width:0.5;" width="159" x="153.5" y="79.2969"/><ellipse cx="168.5" cy="95.2969" fill="#ADD1B2" rx="11" ry="11" style="stroke:#181818;stroke-width:1.0;"/><path d="M171.4688,100.9375 Q170.8906,101.2344 170.25,101.375 Q169.6094,101.5313 168.9063,101.5313 Q166.4063,101.5313 165.0781,99.8906 Q163.7656,98.2344 163.7656,95.1094 Q163.7656,91.9844 165.0781,90.3281 Q166.4063,88.6719 168.9063,88.6719 Q169.6094,88.6719 170.25,88.8281 Q170.9063,88.9844 171.4688,89.2813 L171.4688,92 Q170.8438,91.4219 170.25,91.1563 Q169.6563,90.875 169.0313,90.875 Q167.6875,90.875 167,91.9531 Q166.3125,93.0156 166.3125,95.1094 Q166.3125,97.2031 167,98.2813 Q167.6875,99.3438 169.0313,99.3438 Q169.6563,99.3438 170.25,99.0781 Q170.8438,98.7969 171.4688,98.2188 L171.4688,100.9375 Z " fill="#000000"/><text fill="#000000" font-family="sans-serif" font-size="14" lengthAdjust="spacing" textLength="127" x="182.5" y="100.1436">QProcessManager</text><line style="stroke:#181818;stroke-width:0.5;" x1="154.5" x2="311.5" y1="111.2969" y2="111.2969"/><line style="stroke:#181818;stroke-width:0.5;" x1="154.5" x2="311.5" y1="119.2969" y2="119.2969"/></g><!--class QPluginManager--><g id="elem_QPluginManager"><rect codeLine="17" fill="#F1F1F1" height="48" id="QPluginManager" rx="2.5" ry="2.5" style="stroke:#181818;stroke-width:0.5;" width="145" x="704.5" y="79.2969"/><ellipse cx="719.5" cy="95.2969" fill="#ADD1B2" rx="11" ry="11" style="stroke:#181818;stroke-width:1.0;"/><path d="M722.4688,100.9375 Q721.8906,101.2344 721.25,101.375 Q720.6094,101.5313 719.9063,101.5313 Q717.4063,101.5313 716.0781,99.8906 Q714.7656,98.2344 714.7656,95.1094 Q714.7656,91.9844 716.0781,90.3281 Q717.4063,88.6719 719.9063,88.6719 Q720.6094,88.6719 721.25,88.8281 Q721.9063,88.9844 722.4688,89.2813 L722.4688,92 Q721.8438,91.4219 721.25,91.1563 Q720.6563,90.875 720.0313,90.875 Q718.6875,90.875 718,91.9531 Q717.3125,93.0156 717.3125,95.1094 Q717.3125,97.2031 718,98.2813 Q718.6875,99.3438 720.0313,99.3438 Q720.6563,99.3438 721.25,99.0781 Q721.8438,98.7969 722.4688,98.2188 L722.4688,100.9375 Z " fill="#000000"/><text fill="#000000" font-family="sans-serif" font-size="14" lengthAdjust="spacing" textLength="113" x="733.5" y="100.1436">QPluginManager</text><line style="stroke:#181818;stroke-width:0.5;" x1="705.5" x2="848.5" y1="111.2969" y2="111.2969"/><line style="stroke:#181818;stroke-width:0.5;" x1="705.5" x2="848.5" y1="119.2969" y2="119.2969"/></g><!--class QPluginInterface--><g id="elem_QPluginInterface"><rect codeLine="18" fill="#F1F1F1" height="48" id="QPluginInterface" rx="2.5" ry="2.5" style="stroke:#181818;stroke-width:0.5;" width="145" x="704.5" y="227.2969"/><ellipse cx="719.5" cy="243.2969" fill="#ADD1B2" rx="11" ry="11" style="stroke:#181818;stroke-width:1.0;"/><path d="M722.4688,248.9375 Q721.8906,249.2344 721.25,249.375 Q720.6094,249.5313 719.9063,249.5313 Q717.4063,249.5313 716.0781,247.8906 Q714.7656,246.2344 714.7656,243.1094 Q714.7656,239.9844 716.0781,238.3281 Q717.4063,236.6719 719.9063,236.6719 Q720.6094,236.6719 721.25,236.8281 Q721.9063,236.9844 722.4688,237.2813 L722.4688,240 Q721.8438,239.4219 721.25,239.1563 Q720.6563,238.875 720.0313,238.875 Q718.6875,238.875 718,239.9531 Q717.3125,241.0156 717.3125,243.1094 Q717.3125,245.2031 718,246.2813 Q718.6875,247.3438 720.0313,247.3438 Q720.6563,247.3438 721.25,247.0781 Q721.8438,246.7969 722.4688,246.2188 L722.4688,248.9375 Z " fill="#000000"/><text fill="#000000" font-family="sans-serif" font-size="14" lengthAdjust="spacing" textLength="113" x="733.5" y="248.1436">QPluginInterface</text><line style="stroke:#181818;stroke-width:0.5;" x1="705.5" x2="848.5" y1="259.2969" y2="259.2969"/><line style="stroke:#181818;stroke-width:0.5;" x1="705.5" x2="848.5" y1="267.2969" y2="267.2969"/></g><!--class QPluginLoaderExt--><g id="elem_QPluginLoaderExt"><rect codeLine="19" fill="#F1F1F1" height="48" id="QPluginLoaderExt" rx="2.5" ry="2.5" style="stroke:#181818;stroke-width:0.5;" width="153" x="516.5" y="79.2969"/><ellipse cx="531.5" cy="95.2969" fill="#ADD1B2" rx="11" ry="11" style="stroke:#181818;stroke-width:1.0;"/><path d="M534.4688,100.9375 Q533.8906,101.2344 533.25,101.375 Q532.6094,101.5313 531.9063,101.5313 Q529.4063,101.5313 528.0781,99.8906 Q526.7656,98.2344 526.7656,95.1094 Q526.7656,91.9844 528.0781,90.3281 Q529.4063,88.6719 531.9063,88.6719 Q532.6094,88.6719 533.25,88.8281 Q533.9063,88.9844 534.4688,89.2813 L534.4688,92 Q533.8438,91.4219 533.25,91.1563 Q532.6563,90.875 532.0313,90.875 Q530.6875,90.875 530,91.9531 Q529.3125,93.0156 529.3125,95.1094 Q529.3125,97.2031 530,98.2813 Q530.6875,99.3438 532.0313,99.3438 Q532.6563,99.3438 533.25,99.0781 Q533.8438,98.7969 534.4688,98.2188 L534.4688,100.9375 Z " fill="#000000"/><text fill="#000000" font-family="sans-serif" font-size="14" lengthAdjust="spacing" textLength="121" x="545.5" y="100.1436">QPluginLoaderExt</text><line style="stroke:#181818;stroke-width:0.5;" x1="517.5" x2="668.5" y1="111.2969" y2="111.2969"/><line style="stroke:#181818;stroke-width:0.5;" x1="517.5" x2="668.5" y1="119.2969" y2="119.2969"/></g><!--reverse link ShutdownHandler to UnixShutdownHandler--><g id="link_ShutdownHandler_UnixShutdownHandler"><path codeLine="22" d="M193.06,289.1869 C175.49,305.4169 155.39,323.9869 139.99,338.2169 " fill="none" id="ShutdownHandler-backto-UnixShutdownHandler" style="stroke:#181818;stroke-width:1.0;"/><polygon fill="none" points="188.53,283.8369,207.98,275.4169,198.03,294.1269,188.53,283.8369" style="stroke:#181818;stroke-width:1.0;"/></g><!--reverse link ShutdownHandler to WindowsShutdownHandler--><g id="link_ShutdownHandler_WindowsShutdownHandler"><path codeLine="23" d="M272.94,289.1869 C290.51,305.4169 310.61,323.9869 326.01,338.2169 " fill="none" id="ShutdownHandler-backto-WindowsShutdownHandler" style="stroke:#181818;stroke-width:1.0;"/><polygon fill="none" points="267.97,294.1269,258.02,275.4169,277.47,283.8369,267.97,294.1269" style="stroke:#181818;stroke-width:1.0;"/></g><!--link QProcessManager to ShutdownHandler--><g id="link_QProcessManager_ShutdownHandler"><path codeLine="24" d="M233,127.4269 C233,153.0569 233,194.3969 233,221.9569 " fill="none" id="QProcessManager-to-ShutdownHandler" style="stroke:#181818;stroke-width:1.0;"/><polygon fill="#181818" points="233,227.2669,237,218.2669,233,222.2669,229,218.2669,233,227.2669" style="stroke:#181818;stroke-width:1.0;"/><text fill="#000000" font-family="sans-serif" font-size="13" lengthAdjust="spacing" textLength="30" x="234" y="172.3638">uses</text></g><!--link QPluginManager to QPluginInterface--><g id="link_QPluginManager_QPluginInterface"><path codeLine="25" d="M777,127.4269 C777,153.0569 777,194.3969 777,221.9569 " fill="none" id="QPluginManager-to-QPluginInterface" style="stroke:#181818;stroke-width:1.0;stroke-dasharray:7.0,7.0;"/><polygon fill="#181818" points="777,227.2669,781,218.2669,777,222.2669,773,218.2669,777,227.2669" style="stroke:#181818;stroke-width:1.0;"/><text fill="#000000" font-family="sans-serif" font-size="13" lengthAdjust="spacing" textLength="54" x="778" y="172.3638">provides</text></g><!--SRC=[TP31QW9144JlynMDz_K3HBo418K8YeISczdUTTZPdgMxDngI_7icmOXEz5hrgEfgxG8FADZ3WBx3bdRs7Wc4l3azUxh7EXq2jz1WL7BEWcNgANjqIDB1G-g7nCIcpfs2OBA9Q4sIVW8V3i17L8NTVhGSnKlaEfASzHSEntlUQ-0iQsb_NLP9ygHwsRGzQMlaZ1Hu7Dl01Vwh_T65l68ZQT1JQJmdh4aUZ_QJNrm8yy-gkhdi9dXdPh43gcfHVX5cC2gfkzu0q-dYt_qP7IIzXJhZtm00]--></g></svg>