<svg xmlns="http://www.w3.org/2000/svg" xmlns:xlink="http://www.w3.org/1999/xlink" contentStyleType="text/css" data-diagram-type="SEQUENCE" height="386px" preserveAspectRatio="none" style="width:561px;height:386px;background:#FFFFFF;" version="1.1" viewBox="0 0 561 386" width="561px" zoomAndPan="magnify"><defs/><g><g><title>User</title><rect fill="#000000" fill-opacity="0.00000" height="223.9297" width="8" x="19.9551" y="81.2969"/><line style="stroke:#181818;stroke-width:0.5;stroke-dasharray:5,5;" x1="23" x2="23" y1="81.2969" y2="305.2266"/></g><g><title>Daqster App</title><rect fill="#000000" fill-opacity="0.00000" height="223.9297" width="8" x="99.5098" y="81.2969"/><line style="stroke:#181818;stroke-width:0.5;stroke-dasharray:5,5;" x1="102.9102" x2="102.9102" y1="81.2969" y2="305.2266"/></g><g><title>Framework</title><rect fill="#000000" fill-opacity="0.00000" height="223.9297" width="8" x="229.9028" y="81.2969"/><line style="stroke:#181818;stroke-width:0.5;stroke-dasharray:5,5;" x1="233.644" x2="233.644" y1="81.2969" y2="305.2266"/></g><g><title>QProcessManager</title><rect fill="#000000" fill-opacity="0.00000" height="223.9297" width="8" x="356.1855" y="81.2969"/><line style="stroke:#181818;stroke-width:0.5;stroke-dasharray:5,5;" x1="360.1616" x2="360.1616" y1="81.2969" y2="305.2266"/></g><g><title>Plugin Process</title><rect fill="#000000" fill-opacity="0.00000" height="223.9297" width="8" x="493.6929" y="81.2969"/><line style="stroke:#181818;stroke-width:0.5;stroke-dasharray:5,5;" x1="497.2095" x2="497.2095" y1="81.2969" y2="305.2266"/></g><g class="participant participant-head" data-participant="User"><text fill="#000000" font-family="sans-serif" font-size="14" lengthAdjust="spacing" textLength="31.9102" x="5" y="77.9951">User</text><ellipse cx="23.9551" cy="13.5" fill="#E2E2F0" rx="8" ry="8" style="stroke:#181818;stroke-width:0.5;"/><path d="M23.9551,21.5 L23.9551,48.5 M10.9551,29.5 L36.9551,29.5 M23.9551,48.5 L10.9551,63.5 M23.9551,48.5 L36.9551,63.5" fill="none" style="stroke:#181818;stroke-width:0.5;"/></g><g class="participant participant-tail" data-participant="User"><text fill="#000000" font-family="sans-serif" font-size="14" lengthAdjust="spacing" textLength="31.9102" x="5" y="317.2217">User</text><ellipse cx="23.9551" cy="329.0234" fill="#E2E2F0" rx="8" ry="8" style="stroke:#181818;stroke-width:0.5;"/><path d="M23.9551,337.0234 L23.9551,364.0234 M10.9551,345.0234 L36.9551,345.0234 M23.9551,364.0234 L10.9551,379.0234 M23.9551,364.0234 L36.9551,379.0234" fill="none" style="stroke:#181818;stroke-width:0.5;"/></g><g class="participant participant-head" data-participant="App"><rect fill="#E2E2F0" height="30.2969" rx="2.5" ry="2.5" style="stroke:#181818;stroke-width:0.5;" width="101.1992" x="52.9102" y="50"/><text fill="#000000" font-family="sans-serif" font-size="14" lengthAdjust="spacing" textLength="87.1992" x="59.9102" y="69.9951">Daqster App</text></g><g class="participant participant-tail" data-participant="App"><rect fill="#E2E2F0" height="30.2969" rx="2.5" ry="2.5" style="stroke:#181818;stroke-width:0.5;" width="101.1992" x="52.9102" y="304.2266"/><text fill="#000000" font-family="sans-serif" font-size="14" lengthAdjust="spacing" textLength="87.1992" x="59.9102" y="324.2217">Daqster App</text></g><g class="participant participant-head" data-participant="FW"><rect fill="#E2E2F0" height="30.2969" rx="2.5" ry="2.5" style="stroke:#181818;stroke-width:0.5;" width="92.5176" x="187.644" y="50"/><text fill="#000000" font-family="sans-serif" font-size="14" lengthAdjust="spacing" textLength="78.5176" x="194.644" y="69.9951">Framework</text></g><g class="participant participant-tail" data-participant="FW"><rect fill="#E2E2F0" height="30.2969" rx="2.5" ry="2.5" style="stroke:#181818;stroke-width:0.5;" width="92.5176" x="187.644" y="304.2266"/><text fill="#000000" font-family="sans-serif" font-size="14" lengthAdjust="spacing" textLength="78.5176" x="194.644" y="324.2217">Framework</text></g><g class="participant participant-head" data-participant="PM"><rect fill="#E2E2F0" height="30.2969" rx="2.5" ry="2.5" style="stroke:#181818;stroke-width:0.5;" width="140.0479" x="290.1616" y="50"/><text fill="#000000" font-family="sans-serif" font-size="14" lengthAdjust="spacing" textLength="126.0479" x="297.1616" y="69.9951">QProcessManager</text></g><g class="participant participant-tail" data-participant="PM"><rect fill="#E2E2F0" height="30.2969" rx="2.5" ry="2.5" style="stroke:#181818;stroke-width:0.5;" width="140.0479" x="290.1616" y="304.2266"/><text fill="#000000" font-family="sans-serif" font-size="14" lengthAdjust="spacing" textLength="126.0479" x="297.1616" y="324.2217">QProcessManager</text></g><g class="participant participant-head" data-participant="Plugin"><rect fill="#E2E2F0" height="30.2969" rx="2.5" ry="2.5" style="stroke:#181818;stroke-width:0.5;" width="114.9668" x="440.2095" y="50"/><text fill="#000000" font-family="sans-serif" font-size="14" lengthAdjust="spacing" textLength="100.9668" x="447.2095" y="69.9951">Plugin Process</text></g><g class="participant participant-tail" data-participant="Plugin"><rect fill="#E2E2F0" height="30.2969" rx="2.5" ry="2.5" style="stroke:#181818;stroke-width:0.5;" width="114.9668" x="440.2095" y="304.2266"/><text fill="#000000" font-family="sans-serif" font-size="14" lengthAdjust="spacing" textLength="100.9668" x="447.2095" y="324.2217">Plugin Process</text></g><g class="message" data-participant-1="User" data-participant-2="App"><polygon fill="#181818" points="91.5098,108.4297,101.5098,112.4297,91.5098,116.4297,95.5098,112.4297" style="stroke:#181818;stroke-width:1;"/><line style="stroke:#181818;stroke-width:1;" x1="23.9551" x2="97.5098" y1="112.4297" y2="112.4297"/><text fill="#000000" font-family="sans-serif" font-size="13" lengthAdjust="spacing" textLength="30.2783" x="30.9551" y="107.3638">start</text></g><g class="message" data-participant-1="App" data-participant-2="FW"><polygon fill="#181818" points="221.9028,137.5625,231.9028,141.5625,221.9028,145.5625,225.9028,141.5625" style="stroke:#181818;stroke-width:1;"/><line style="stroke:#181818;stroke-width:1;" x1="103.5098" x2="227.9028" y1="141.5625" y2="141.5625"/><text fill="#000000" font-family="sans-serif" font-size="13" lengthAdjust="spacing" textLength="106.3931" x="110.5098" y="136.4966">Plugin discovery</text></g><g class="message" data-participant-1="FW" data-participant-2="App"><polygon fill="#181818" points="114.5098,166.6953,104.5098,170.6953,114.5098,174.6953,110.5098,170.6953" style="stroke:#181818;stroke-width:1;"/><line style="stroke:#181818;stroke-width:1;" x1="108.5098" x2="232.9028" y1="170.6953" y2="170.6953"/><text fill="#000000" font-family="sans-serif" font-size="13" lengthAdjust="spacing" textLength="86.8677" x="120.5098" y="165.6294">list of plugins</text></g><g class="message" data-participant-1="App" data-participant-2="PM"><polygon fill="#181818" points="348.1855,195.8281,358.1855,199.8281,348.1855,203.8281,352.1855,199.8281" style="stroke:#181818;stroke-width:1;"/><line style="stroke:#181818;stroke-width:1;" x1="103.5098" x2="354.1855" y1="199.8281" y2="199.8281"/><text fill="#000000" font-family="sans-serif" font-size="13" lengthAdjust="spacing" textLength="131.936" x="110.5098" y="194.7622">StartProcess(plugin)</text></g><g class="message" data-participant-1="PM" data-participant-2="Plugin"><polygon fill="#181818" points="485.6929,224.9609,495.6929,228.9609,485.6929,232.9609,489.6929,228.9609" style="stroke:#181818;stroke-width:1;"/><line style="stroke:#181818;stroke-width:1;" x1="360.1855" x2="491.6929" y1="228.9609" y2="228.9609"/><text fill="#000000" font-family="sans-serif" font-size="13" lengthAdjust="spacing" textLength="30.2783" x="367.1855" y="223.895">start</text></g><g class="message" data-participant-1="Plugin" data-participant-2="PM"><polygon fill="#181818" points="371.1855,254.0938,361.1855,258.0938,371.1855,262.0938,367.1855,258.0938" style="stroke:#181818;stroke-width:1;"/><line style="stroke:#181818;stroke-width:1;" x1="365.1855" x2="496.6929" y1="258.0938" y2="258.0938"/><text fill="#000000" font-family="sans-serif" font-size="13" lengthAdjust="spacing" textLength="37.2544" x="377.1855" y="253.0278">ready</text></g><g class="message" data-participant-1="PM" data-participant-2="App"><polygon fill="#181818" points="114.5098,283.2266,104.5098,287.2266,114.5098,291.2266,110.5098,287.2266" style="stroke:#181818;stroke-width:1;"/><line style="stroke:#181818;stroke-width:1;" x1="108.5098" x2="359.1855" y1="287.2266" y2="287.2266"/><text fill="#000000" font-family="sans-serif" font-size="13" lengthAdjust="spacing" textLength="224.8975" x="120.5098" y="282.1606">ProcessEvent(PROCESS_STARTED)</text></g><!--SRC=[NOw_3e8m4CRtFiM5IGPVWC74A6n450sZkTHg6f7MkuhXxQMr7NJhzVjzVr0wGt1YHS8YEIsrnS71sbf0XcoBJtQA_9tz05KNz8hmeTw6xhzgKmTrtv2HYhd60M-A_fZ-TTD3uE8pqfaGVWyiLxws07QpI_X5yq_L5SbvqIpDg6WIyvW4zveTc2lOm72oDNK1hS-97OkldejvgPV3bQfYVhIHmiiKkL0H8yfH3MxH77QRictFxN5zE9RR_0C0]--></g></svg>